<mxfile host="Electron" agent="Mozilla/5.0 (X11; Linux x86_64) AppleWebKit/537.36 (KHTML, like Gecko) draw.io/28.2.5 Chrome/138.0.7204.251 Electron/37.6.1 Safari/537.36" version="28.2.5">
  <diagram name="Página-1" id="3rNcy2qLpedXzO3xVGXb">
    <mxGraphModel dx="731" dy="443" grid="1" gridSize="10" guides="1" tooltips="1" connect="1" arrows="1" fold="1" page="1" pageScale="1" pageWidth="827" pageHeight="1169" math="0" shadow="0">
      <root>
        <mxCell id="0" />
        <mxCell id="1" parent="0" />
        <mxCell id="9c4U6S36D42RGbkUZQl0-18" style="edgeStyle=orthogonalEdgeStyle;rounded=0;orthogonalLoop=1;jettySize=auto;html=1;exitX=0.5;exitY=0;exitDx=0;exitDy=0;exitPerimeter=0;entryX=0;entryY=0.5;entryDx=0;entryDy=0;" edge="1" parent="1" source="bwQ1igHlncTLA1dTVtZi-3" target="9c4U6S36D42RGbkUZQl0-1">
          <mxGeometry relative="1" as="geometry" />
        </mxCell>
        <mxCell id="9c4U6S36D42RGbkUZQl0-19" style="edgeStyle=orthogonalEdgeStyle;rounded=0;orthogonalLoop=1;jettySize=auto;html=1;exitX=0.5;exitY=0.5;exitDx=0;exitDy=0;exitPerimeter=0;entryX=0;entryY=0.5;entryDx=0;entryDy=0;" edge="1" parent="1" source="bwQ1igHlncTLA1dTVtZi-3" target="9c4U6S36D42RGbkUZQl0-2">
          <mxGeometry relative="1" as="geometry" />
        </mxCell>
        <mxCell id="9c4U6S36D42RGbkUZQl0-37" style="edgeStyle=orthogonalEdgeStyle;rounded=0;orthogonalLoop=1;jettySize=auto;html=1;exitX=1;exitY=1;exitDx=0;exitDy=0;exitPerimeter=0;entryX=0;entryY=0.5;entryDx=0;entryDy=0;" edge="1" parent="1" source="bwQ1igHlncTLA1dTVtZi-3" target="9c4U6S36D42RGbkUZQl0-36">
          <mxGeometry relative="1" as="geometry" />
        </mxCell>
        <mxCell id="9c4U6S36D42RGbkUZQl0-41" style="edgeStyle=orthogonalEdgeStyle;rounded=0;orthogonalLoop=1;jettySize=auto;html=1;exitX=0.5;exitY=0.5;exitDx=0;exitDy=0;exitPerimeter=0;entryX=0;entryY=0;entryDx=0;entryDy=0;" edge="1" parent="1" source="bwQ1igHlncTLA1dTVtZi-3" target="9c4U6S36D42RGbkUZQl0-3">
          <mxGeometry relative="1" as="geometry">
            <Array as="points">
              <mxPoint x="110" y="255" />
              <mxPoint x="110" y="433" />
            </Array>
          </mxGeometry>
        </mxCell>
        <mxCell id="bwQ1igHlncTLA1dTVtZi-3" value="Visitante" style="shape=umlActor;html=1;verticalLabelPosition=bottom;verticalAlign=top;align=center;" parent="1" vertex="1">
          <mxGeometry x="94" y="225" width="30" height="60" as="geometry" />
        </mxCell>
        <mxCell id="9c4U6S36D42RGbkUZQl0-34" style="edgeStyle=orthogonalEdgeStyle;rounded=0;orthogonalLoop=1;jettySize=auto;html=1;exitX=0.5;exitY=0;exitDx=0;exitDy=0;exitPerimeter=0;entryX=0;entryY=1;entryDx=0;entryDy=0;" edge="1" parent="1" source="bwQ1igHlncTLA1dTVtZi-4" target="9c4U6S36D42RGbkUZQl0-3">
          <mxGeometry relative="1" as="geometry">
            <Array as="points">
              <mxPoint x="110" y="480" />
              <mxPoint x="211" y="480" />
            </Array>
          </mxGeometry>
        </mxCell>
        <mxCell id="9c4U6S36D42RGbkUZQl0-35" style="edgeStyle=orthogonalEdgeStyle;rounded=0;orthogonalLoop=1;jettySize=auto;html=1;exitX=1;exitY=1;exitDx=0;exitDy=0;exitPerimeter=0;entryX=0;entryY=0.5;entryDx=0;entryDy=0;" edge="1" parent="1" source="bwQ1igHlncTLA1dTVtZi-4" target="9c4U6S36D42RGbkUZQl0-5">
          <mxGeometry relative="1" as="geometry" />
        </mxCell>
        <mxCell id="bwQ1igHlncTLA1dTVtZi-4" value="Aluno" style="shape=umlActor;html=1;verticalLabelPosition=bottom;verticalAlign=top;align=center;" parent="1" vertex="1">
          <mxGeometry x="95" y="534" width="30" height="60" as="geometry" />
        </mxCell>
        <mxCell id="9c4U6S36D42RGbkUZQl0-27" style="edgeStyle=orthogonalEdgeStyle;rounded=0;orthogonalLoop=1;jettySize=auto;html=1;exitX=0.5;exitY=0;exitDx=0;exitDy=0;exitPerimeter=0;entryX=0;entryY=0.5;entryDx=0;entryDy=0;" edge="1" parent="1" source="bwQ1igHlncTLA1dTVtZi-5" target="9c4U6S36D42RGbkUZQl0-7">
          <mxGeometry relative="1" as="geometry" />
        </mxCell>
        <mxCell id="9c4U6S36D42RGbkUZQl0-28" style="edgeStyle=orthogonalEdgeStyle;rounded=0;orthogonalLoop=1;jettySize=auto;html=1;exitX=0.5;exitY=0.5;exitDx=0;exitDy=0;exitPerimeter=0;entryX=0;entryY=0.5;entryDx=0;entryDy=0;" edge="1" parent="1" source="bwQ1igHlncTLA1dTVtZi-5" target="9c4U6S36D42RGbkUZQl0-8">
          <mxGeometry relative="1" as="geometry" />
        </mxCell>
        <mxCell id="bwQ1igHlncTLA1dTVtZi-5" value="Professor" style="shape=umlActor;html=1;verticalLabelPosition=bottom;verticalAlign=top;align=center;" parent="1" vertex="1">
          <mxGeometry x="444" y="225" width="30" height="60" as="geometry" />
        </mxCell>
        <mxCell id="9c4U6S36D42RGbkUZQl0-40" style="edgeStyle=orthogonalEdgeStyle;rounded=0;orthogonalLoop=1;jettySize=auto;html=1;exitX=0.5;exitY=0.5;exitDx=0;exitDy=0;exitPerimeter=0;entryX=0;entryY=0.5;entryDx=0;entryDy=0;" edge="1" parent="1" source="bwQ1igHlncTLA1dTVtZi-6" target="9c4U6S36D42RGbkUZQl0-39">
          <mxGeometry relative="1" as="geometry" />
        </mxCell>
        <mxCell id="9c4U6S36D42RGbkUZQl0-43" style="edgeStyle=orthogonalEdgeStyle;rounded=0;orthogonalLoop=1;jettySize=auto;html=1;exitX=0.5;exitY=0;exitDx=0;exitDy=0;exitPerimeter=0;entryX=0;entryY=0.5;entryDx=0;entryDy=0;" edge="1" parent="1" source="bwQ1igHlncTLA1dTVtZi-6" target="9c4U6S36D42RGbkUZQl0-42">
          <mxGeometry relative="1" as="geometry" />
        </mxCell>
        <mxCell id="bwQ1igHlncTLA1dTVtZi-6" value="Escola" style="shape=umlActor;html=1;verticalLabelPosition=bottom;verticalAlign=top;align=center;" parent="1" vertex="1">
          <mxGeometry x="444" y="399" width="30" height="60" as="geometry" />
        </mxCell>
        <mxCell id="9c4U6S36D42RGbkUZQl0-25" style="edgeStyle=orthogonalEdgeStyle;rounded=0;orthogonalLoop=1;jettySize=auto;html=1;exitX=0.5;exitY=0;exitDx=0;exitDy=0;exitPerimeter=0;entryX=0;entryY=0.5;entryDx=0;entryDy=0;" edge="1" parent="1" source="bwQ1igHlncTLA1dTVtZi-7" target="9c4U6S36D42RGbkUZQl0-9">
          <mxGeometry relative="1" as="geometry" />
        </mxCell>
        <mxCell id="9c4U6S36D42RGbkUZQl0-31" style="edgeStyle=orthogonalEdgeStyle;rounded=0;orthogonalLoop=1;jettySize=auto;html=1;exitX=0.5;exitY=0.5;exitDx=0;exitDy=0;exitPerimeter=0;entryX=0;entryY=0.5;entryDx=0;entryDy=0;" edge="1" parent="1" source="bwQ1igHlncTLA1dTVtZi-7" target="9c4U6S36D42RGbkUZQl0-6">
          <mxGeometry relative="1" as="geometry" />
        </mxCell>
        <mxCell id="bwQ1igHlncTLA1dTVtZi-7" value="Mantenedor" style="shape=umlActor;html=1;verticalLabelPosition=bottom;verticalAlign=top;align=center;" parent="1" vertex="1">
          <mxGeometry x="444" y="576" width="30" height="60" as="geometry" />
        </mxCell>
        <mxCell id="9c4U6S36D42RGbkUZQl0-1" value="Visualizar Cursos e Instrutores" style="ellipse;whiteSpace=wrap;html=1;" vertex="1" parent="1">
          <mxGeometry x="190" y="130" width="140" height="70" as="geometry" />
        </mxCell>
        <mxCell id="9c4U6S36D42RGbkUZQl0-2" value="Visualizar Vagas de Emprego" style="ellipse;whiteSpace=wrap;html=1;" vertex="1" parent="1">
          <mxGeometry x="190" y="220" width="140" height="70" as="geometry" />
        </mxCell>
        <mxCell id="9c4U6S36D42RGbkUZQl0-3" value="Assistir Aulas de Cursos Livres" style="ellipse;whiteSpace=wrap;html=1;" vertex="1" parent="1">
          <mxGeometry x="190" y="423" width="140" height="70" as="geometry" />
        </mxCell>
        <mxCell id="9c4U6S36D42RGbkUZQl0-4" value="Comprar Créditos" style="ellipse;whiteSpace=wrap;html=1;" vertex="1" parent="1">
          <mxGeometry x="189" y="513" width="140" height="70" as="geometry" />
        </mxCell>
        <mxCell id="9c4U6S36D42RGbkUZQl0-5" value="Contratar Aula Particular" style="ellipse;whiteSpace=wrap;html=1;" vertex="1" parent="1">
          <mxGeometry x="190" y="608" width="140" height="70" as="geometry" />
        </mxCell>
        <mxCell id="9c4U6S36D42RGbkUZQl0-6" value="Gerenciar Cursos e Plataforma" style="ellipse;whiteSpace=wrap;html=1;" vertex="1" parent="1">
          <mxGeometry x="555" y="570" width="140" height="70" as="geometry" />
        </mxCell>
        <mxCell id="9c4U6S36D42RGbkUZQl0-7" value="Personalizar Curso para Escola" style="ellipse;whiteSpace=wrap;html=1;" vertex="1" parent="1">
          <mxGeometry x="555" y="133" width="140" height="70" as="geometry" />
        </mxCell>
        <mxCell id="9c4U6S36D42RGbkUZQl0-8" value="Ministrar Aulas Particulares" style="ellipse;whiteSpace=wrap;html=1;" vertex="1" parent="1">
          <mxGeometry x="555" y="220" width="140" height="70" as="geometry" />
        </mxCell>
        <mxCell id="9c4U6S36D42RGbkUZQl0-9" value="Gerenciar Alunos da Escola" style="ellipse;whiteSpace=wrap;html=1;" vertex="1" parent="1">
          <mxGeometry x="555" y="483.25" width="140" height="70" as="geometry" />
        </mxCell>
        <mxCell id="9c4U6S36D42RGbkUZQl0-10" value="Ver Propagandas" style="ellipse;whiteSpace=wrap;html=1;" vertex="1" parent="1">
          <mxGeometry x="20" y="950" width="140" height="70" as="geometry" />
        </mxCell>
        <mxCell id="9c4U6S36D42RGbkUZQl0-33" style="edgeStyle=orthogonalEdgeStyle;rounded=0;orthogonalLoop=1;jettySize=auto;html=1;exitX=1;exitY=0.3333333333333333;exitDx=0;exitDy=0;exitPerimeter=0;entryX=-0.012;entryY=0.59;entryDx=0;entryDy=0;entryPerimeter=0;" edge="1" parent="1" source="bwQ1igHlncTLA1dTVtZi-4" target="9c4U6S36D42RGbkUZQl0-4">
          <mxGeometry relative="1" as="geometry" />
        </mxCell>
        <mxCell id="9c4U6S36D42RGbkUZQl0-36" value="Solicitar Aula Personalizada" style="ellipse;whiteSpace=wrap;html=1;" vertex="1" parent="1">
          <mxGeometry x="189" y="310" width="140" height="70" as="geometry" />
        </mxCell>
        <mxCell id="9c4U6S36D42RGbkUZQl0-39" value="Solicitar Criação de Novos Cursos" style="ellipse;whiteSpace=wrap;html=1;" vertex="1" parent="1">
          <mxGeometry x="555" y="394" width="140" height="70" as="geometry" />
        </mxCell>
        <mxCell id="9c4U6S36D42RGbkUZQl0-42" value="Licenciar Uso da Plataforma" style="ellipse;whiteSpace=wrap;html=1;" vertex="1" parent="1">
          <mxGeometry x="555" y="306" width="140" height="70" as="geometry" />
        </mxCell>
      </root>
    </mxGraphModel>
  </diagram>
</mxfile>
